<svg xmlns="http://www.w3.org/2000/svg" viewBox="0 0 100 30" width="100" height="30">
  <path d="M57.44,19.34c-1.2,1.2-2.88,1.68-4.44,1.68-2.64,0-4.08-1.56-4.08-3.48,0-2.4,1.8-3.36,3.6-3.72,1.32-.24,3.24-.12,4.92-.12v-.48c0-1.44-.72-2.16-2.16-2.16-1.08,0-1.8,.48-2.4,1.08l-1.32-2.4c1.2-1.2,3.24-1.8,5.16-1.8,4.2,0,5.04,3.24,5.04,6v2.16c0,1.2.12,2.28.6,3.36v.48h-3.96c-.36-.36-.48-.96-.48-1.56m-.24-2.88c0-1.56-1.56-1.68-2.88-1.68-1.08,0-2.04,.36-2.04,1.32,0,.72,.72,1.08,1.68,1.08,1.2,0,2.16-.6,2.76-1.32,0-.36,.48-.36,.48+.6M31.4,14.66c0,2.04-.12,3.36-.24,5.04h-4.2c.12-1.08,.24-2.28,.24-3.48,0-3-.12-6-.36-9h4.32v2.16c.84-1.32,2.52-2.64,5.16-2.64,1.92,0,3.72,.96,4.56,2.76,.84-1.44,2.52-2.76,5.16-2.76,3,0,5.64,1.92,5.64,6.6v8.28h-4.32v-6.96c0-1.56-.84-2.52-2.16-2.52-1.32,0-2.16,1.08-2.16,2.52v6.96h-4.32v-7.08c0-1.56-.84-2.52-2.16-2.52-1.32,0-2.16,1.08-2.16,2.64v6.96h-4.2v-2.16c.12-.24,.12-.48,.12-.72M71.36,19.34c-1.2,1.2-2.88,1.68-4.44,1.68-2.64,0-4.08-1.56-4.08-3.48,0-2.4,1.8-3.36,3.6-3.72,1.32-.24,3.24-.12,4.92-.12v-.48c0-1.44-.72-2.16-2.16-2.16-1.08,0-1.8,.48-2.4,1.08l-1.32-2.4c1.2-1.2,3.24-1.8,5.16-1.8,4.2,0,5.04,3.24,5.04,6v2.16c0,1.2.12,2.28.6,3.36v.48h-3.96c-.36-.36-.48-.96-.48-1.56m-.24-2.88c0-1.56-1.56-1.68-2.88-1.68-1.08,0-2.04,.36-2.04,1.32,0,.72,.72,1.08,1.68,1.08,1.2,0,2.16-.6,2.76-1.32,0-.36,.48-.36,.48+.6M85.4,19.7c-3.12,0-5.52-2.4-5.52-5.76s2.4-5.76,5.52-5.76,5.52,2.4,5.52,5.76-2.4,5.76-5.52,5.76m0-8.16c-1.32,0-2.04,1.08-2.04,2.4s.72,2.4,2.04,2.4,2.04-1.08,2.04-2.4-.72-2.4-2.04-2.4M94.4,19.7h-4.32v-11.76h4.32v1.56c1.08-1.32,2.4-1.92,4.2-1.92,3.72,0,5.64,3.24,5.64,6.12,0,3.6-2.4,6-5.4,6-1.68,0-3.36-.6-4.44-2.04v2.04m-.84-5.88c0,1.32,.72,2.4,2.04,2.4s1.92-1.08,1.92-2.4c0-1.56-.84-2.4-1.92-2.4s-2.04,1.08-2.04,2.4" />
  <path d="M72.08,23.3v.12S55.28,30.5,37.16,23.18C33.08,21.5,23.84,17.42,23.84,17.42c-.48-.24-1.2,0-1.2.36s.12,.48.48,.84c1.92,1.32,7.2,4.8,11.28,6.84,6.12,2.88,14.04,5.04,20.4,5.16h.24c9-.12,16.2-3.12,17.04-3.48,.48-.24,.48-.6,.48-.84s-.36-.48-.6-.48-.84-.12-.84-.12" fill="#ff9900" />
  <path d="M72.2,22.1c0-.12-.36-.12-.48,0-.36,.24-2.4,1.2-4.08,1.68-1.08,.36-.96,.6-.24,.96,1.44,.72,5.04,2.04,5.88,2.04,.36,0,.24-.72,.24-1.08v-3.6M14,19.7c-3.12,0-5.52-2.4-5.52-5.76s2.4-5.76,5.52-5.76c1.32,0,2.64,.48,3.6,1.32l-1.44,2.28c-.48-.6-1.32-.96-2.16-.96-1.32,0-2.04,1.08-2.04,2.4s.72,2.4,2.04,2.4c.84,0,1.56-.48,2.04-.96h-1.68v-2.52h5.04v.12c0,3.36-2.16,5.76-5.4,5.76" fill="#ff9900" />
</svg>