<svg xmlns="http://www.w3.org/2000/svg" viewBox="0 0 162.24 33.6" fill="currentColor">
  <path fill="#96588a" d="M18.82,0c-10.36,0-18.75,6.72-18.75,15.01c0,4.64,2.5,8.76,6.34,11.39l-2.03,5.54 c-0.19,0.51,0,1.07,0.47,1.38c0.23,0.15,0.49,0.23,0.76,0.23c0.24,0,0.48-0.06,0.68-0.19l5.96-3.88c2.09,0.36,4.29,0.55,6.58,0.55 c10.36,0,18.75-6.72,18.75-15.01S29.18,0,18.82,0z M11.12,19.34c-1.63,0-2.95-1.32-2.95-2.95s1.32-2.95,2.95-2.95 s2.95,1.32,2.95,2.95c0,1.62-1.32,2.94-2.94,2.95H11.12z M25.86,19.34c-1.63,0-2.95-1.32-2.95-2.95s1.32-2.95,2.95-2.95 s2.95,1.32,2.95,2.95S27.5,19.34,25.86,19.34z"/>
  <!-- "Woo" part -->
  <path d="M46.7,24.16h5.81l6.17-21.2h-5.91l-3.32,12.75l-4.22-12.75h-5.71l-4.18,12.75l-3.34-12.75h-5.83l6.21,21.2h5.84l4.28-12.98 L46.7,24.16z M64.83,14.65c0-5.73,4.03-9.56,9.15-9.56c5.19,0,9.08,3.89,9.08,9.56c0,5.7-3.95,9.66-9.08,9.66 C68.78,24.31,64.83,20.35,64.83,14.65z M85.2,14.65c0-5.73,4.03-9.56,9.15-9.56c5.19,0,9.08,3.89,9.08,9.56 c0,5.7-3.95,9.66-9.08,9.66C89.15,24.31,85.2,20.35,85.2,14.65z M79.03,14.65c0-2.61-1.62-4.66-4.05-4.66s-4.05,2.05-4.05,4.66 c0,2.61,1.62,4.66,4.05,4.66S79.03,17.26,79.03,14.65z M99.4,14.65c0-2.61-1.62-4.66-4.05-4.66s-4.05,2.05-4.05,4.66 c0,2.61,1.62,4.66,4.05,4.66S99.4,17.26,99.4,14.65z"/>
  <!-- "Commerce" part -->
  <path d="M117.89,17.29c-1.89-6.3-5.26-7.89-9.15-7.89c-5.8,0-9.87,4.36-9.87,9.66c0,5.3,4.09,9.66,9.85,9.66 c4.07,0,7.34-1.66,9.25-8.08h-5.2c-0.84,2.58-2.6,3.46-4.09,3.46c-2.88,0-4.6-2.19-4.6-4.94h13.91 M103.55,16.5c0-2.81,1.75-4.57,4.52-4.57 c2.73,0,4.42,1.74,4.52,4.57H103.55z M130.41,9.56v14.6h-5.06v-1.68c-1.35,1.4-2.83,1.82-4.49,1.82 c-4.57,0-7.87-3.56-7.87-9.66c0-6.15,3.31-9.56,7.87-9.56c1.7,0,3.19,0.44,4.56,1.87V9.56H130.41z M125.35,14.65 c0-2.61-1.62-4.33-3.8-4.33c-2.22,0-3.84,1.72-3.84,4.33c0,2.63,1.62,4.35,3.84,4.35C123.73,19.01,125.35,17.27,125.35,14.65z M145.42,9.56h5v14.6h-5v-10.2c0-1.28-0.56-1.57-1.39-1.57c-1.01,0-1.82,0.61-2.23,1.38v10.38h-5.01v-10.2 c0-1.28-0.57-1.57-1.39-1.57c-1.02,0-1.83,0.61-2.24,1.38v10.38h-5.01v-14.6h5.01v1.54c0.91-1.21,2.15-1.69,3.58-1.69 c1.26,0,2.63,0.48,3.29,1.66c0.88-1.2,2.23-1.66,3.62-1.66C145.24,7.85,145.42,8.65,145.42,9.56z M162.24,18.89h-5.2 c-0.84,2.58-2.6,3.46-4.09,3.46c-2.88,0-4.6-2.19-4.6-4.94h13.88v-0.93c0-5.73-4.07-8.62-9.87-8.62c-5.8,0-9.87,4.36-9.87,9.66 c0,5.3,4.09,9.66,9.85,9.66C156.45,27.18,160.36,25.29,162.24,18.89z M147.6,16.5c0-2.81,1.75-4.57,4.52-4.57 c2.73,0,4.42,1.74,4.52,4.57H147.6z"/>
</svg>
